:SAMPLES-PER-SECOND 30
:FULLY-SPECIFIED
:DEGREES
1
root  -99.7429 39.1489 -1.32701 -177.959 82.1694 -176.851
RightUpLeg  -25.2066 -6.09072 1.14218
RightLeg  36.2718 7.8994 -1.57704
RightFoot  1.55591 -0.498437 3.86572
RightToes  3.49245e-010 -3.18055e-015 8.94531e-016
Spine  2.70654 -3.49456 -6.50458
Spine1  11.1941 -5.76452 5.43473
HEad  -20.3436 -2.90947 2.47979
LeftShoulder1  0 0 -2.47967e-037
LeftArm  13.0546 21.9222 -83.1285
LeftForeArm  -40.443 -39.7917 23.3827
LeftHand  1.31697 9.24043 3.07823
RightShoulder  -2.48481e-017 0 -8.08114e-019
RightArm  26.099 -41.7473 84.3627
RightForeArm  -40.5478 19.9613 -10.267
RightHand  1.39485 -12.8487 -2.31235
LeftUpLeg  -3.83791 -7.90524 -3.1401
LeftLeg  20.7105 -2.94345 4.44678
LeftFoot  -13.7489 -0.0389038 0.576294
LeftToes  -9.64061e-011 -5.23042e-011 -2.66379e-011
2
root  -98.7492 39.1406 -1.3012 -177.8 81.4867 -176.626
RightUpLeg  -25.9528 -6.46557 1.1866
RightLeg  30.8555 8.63843 -0.744749
RightFoot  1.41185 -0.503062 3.93976
RightToes  3.49245e-010 -3.18055e-015 8.94531e-016
Spine  2.56865 -3.9225 -7.6248
Spine1  11.4704 -6.57882 7.00889
HEad  -20.1976 -2.74405 2.24414
LeftShoulder1  0 0 -2.47967e-037
LeftArm  13.418 19.0929 -82.6187
LeftForeArm  -38.7408 -41.1028 24.1779
LeftHand  1.24594 9.2685 -1.10011
RightShoulder  -2.48481e-017 0 -8.08114e-019
RightArm  25.3316 -43.9334 83.4343
RightForeArm  -39.0499 19.7792 -9.57724
RightHand  1.42532 -12.9273 -2.67244
LeftUpLeg  -1.68724 -7.34023 -2.8578
LeftLeg  19.6593 -3.95523 4.24546
LeftFoot  -14.3091 -0.0373136 0.464104
LeftToes  -9.64061e-011 -5.23042e-011 -2.66379e-011
3
root  -96.8768 39.0334 -1.25085 -178.697 80.3791 -177.48
RightUpLeg  -26.5132 -6.51074 0.782801
RightLeg  19.41 9.68265 0.170331
RightFoot  1.47102 -0.582725 4.54183
RightToes  3.49245e-010 -3.18055e-015 8.94531e-016
Spine  2.23498 -4.76304 -9.52899
Spine1  12.0447 -8.00578 9.30075
HEad  -20.1996 -1.90866 1.8454
LeftShoulder1  0 0 -2.47967e-037
LeftArm  14.0729 14.1927 -81.4129
LeftForeArm  -37.145 -42.8009 25.2388
LeftHand  1.19314 9.19805 -4.48461
RightShoulder  -2.48481e-017 0 -8.08114e-019
RightArm  24.6015 -47.858 81.5922
RightForeArm  -37.3087 19.55 -8.79823
RightHand  1.48104 -13.2575 -2.91468
LeftUpLeg  2.12294 -6.10762 -2.28712
LeftLeg  17.9514 -5.93848 3.86731
LeftFoot  -15.7483 -0.0514033 -0.157187
LeftToes  -9.64061e-011 -5.23042e-011 -2.66379e-011
4
root  -94.8828 38.8143 -1.19922 -179.754 79.4861 -178.612
RightUpLeg  -26.2147 -2.90042 -1.64208
RightLeg  6.19285 5.83919 0.913644
RightFoot  2.14245 -0.743238 5.52426
RightToes  3.49245e-010 -3.18055e-015 8.94531e-016
Spine  1.89196 -5.64383 -10.8081
Spine1  12.7061 -9.32662 10.8761
HEad  -20.2136 -1.04498 1.61344
LeftShoulder1  0 0 -2.47967e-037
LeftArm  14.4104 9.78039 -80.0551
LeftForeArm  -36.1433 -43.3551 25.6332
LeftHand  1.16039 8.848 -3.92515
RightShoulder  -2.48481e-017 0 -8.08114e-019
RightArm  24.5428 -51.6401 79.4775
RightForeArm  -36.5883 19.4357 -8.49362
RightHand  1.50565 -13.5929 -2.64307
LeftUpLeg  5.93922 -5.15681 -1.42596
LeftLeg  16.3778 -7.76777 3.29701
LeftFoot  -16.9466 -0.125835 -2.4046
LeftToes  -9.64061e-011 -5.23042e-011 -2.66379e-011
5
root  -93.016 38.4979 -1.13957 179.753 79.1786 -179.197
RightUpLeg  -26.572 0.535894 -3.80241
RightLeg  -3.2581 0.144653 1.47902
RightFoot  1.92056 -0.828314 6.27581
RightToes  3.49245e-010 -3.18055e-015 8.94531e-016
Spine  1.86696 -6.23891 -11.1329
Spine1  13.2096 -10.1603 11.592
HEad  -20.4931 -0.205559 1.42459
LeftShoulder1  0 0 -2.47967e-037
LeftArm  13.5383 6.92591 -79.0896
LeftForeArm  -35.1297 -42.9759 25.4773
LeftHand  1.14086 8.49043 -2.36037
RightShoulder  -2.48481e-017 0 -8.08114e-019
RightArm  24.6835 -54.2418 77.3719
RightForeArm  -36.1362 19.3421 -8.27543
RightHand  1.45657 -13.5216 -1.99855
LeftUpLeg  9.12093 -5.51587 -0.582997
LeftLeg  15.9179 -8.20613 2.65167
LeftFoot  -17.1574 -0.22226 -5.29332
LeftToes  -9.64061e-011 -5.23042e-011 -2.66379e-011
6
root  -91.091 38.0476 -1.04574 179.893 79.5033 -179.015
RightUpLeg  -28.1374 0.480489 -3.76971
RightLeg  -6.30515 -2.59151 1.96597
RightFoot  -0.0918533 -0.731184 6.38716
RightToes  3.49245e-010 -3.18055e-015 8.94531e-016
Spine  2.23116 -6.46844 -11.0186
Spine1  13.6274 -10.5614 11.9
HEad  -21.2307 0.821662 0.998584
LeftShoulder1  0 0 -2.47967e-037
LeftArm  10.9846 5.58463 -78.5148
LeftForeArm  -34.597 -42.8221 25.4248
LeftHand  1.15015 8.55577 -2.14708
RightShoulder  -2.48481e-017 0 -8.08114e-019
RightArm  24.7798 -55.3935 75.2681
RightForeArm  -35.1503 19.1499 -7.7232
RightHand  1.37966 -13.16 -1.42984
LeftUpLeg  11.8052 -7.32108 0.027544
LeftLeg  17.3372 -6.78014 2.05583
LeftFoot  -17.3711 -0.301263 -7.1633
LeftToes  -9.64061e-011 -5.23042e-011 -2.66379e-011
